<?xml version="1.0" standalone="no"?><!DOCTYPE svg PUBLIC "-//W3C//DTD SVG 1.1//EN" "http://www.w3.org/Graphics/SVG/1.1/DTD/svg11.dtd"><svg t="1766460114412" class="icon" viewBox="0 0 1024 1024" version="1.1" xmlns="http://www.w3.org/2000/svg" p-id="6249" width="48" height="48" xmlns:xlink="http://www.w3.org/1999/xlink"><path d="M531.243 85.333H588.8v79.403h290.73a87.467 87.467 0 0 1 48.64 10.027 97.835 97.835 0 0 1 10.027 50.176q-0.81 258.602 0 516.821a425.643 425.643 0 0 1-3.328 86.827c-3.797 20.693-28.074 21.333-44.202 21.888H589.312v88.192h-60.245c-148.096-27.094-295.979-52.523-443.734-79.019V164.864c148.694-26.539 297.344-52.608 445.91-79.53z" fill="#207245" p-id="6250"></path><path d="M586.581 195.115h321.664v624.213H586.581v-59.435h77.995V690.56h-77.995v-40.064h77.995v-68.95h-77.995v-39.594h77.995v-69.461h-77.995v-40.064h77.995v-68.864h-77.995v-40.064h77.995V254.42h-77.995z" fill="#FFFFFF" p-id="6251"></path><path d="M703.53 254.037h136.534v69.803H703.531z" fill="#207245" p-id="6252"></path><path d="M373.973 346.368q33.195-2.432 66.304-4.267-39.04 81.835-78.592 163.542c26.752 55.808 54.187 110.933 80.726 167.168l-70.614-4.523a1202.347 1202.347 0 0 1-48.64-125.397c-13.226 40.362-32.17 78.805-47.402 118.442-21.334 0-42.667-1.194-64-2.133 25.002-50.432 49.237-100.907 75.05-150.613-21.973-51.2-45.994-101.718-68.608-152.832l64.256-3.712c14.55 39.04 30.251 77.482 42.368 117.546 13.526-42.666 32.896-82.346 49.152-123.306z" fill="#FFFFFF" p-id="6253"></path><path d="M703.53 362.112h136.534v69.803H703.531z m0 109.653h136.534v69.931H703.531z m0 109.782h136.534v69.802H703.531z m0 109.781h136.534v69.803H703.531z" fill="#207245" p-id="6254"></path></svg>